<?xml version="1.0" encoding="UTF-8"?><svg id="b" xmlns="http://www.w3.org/2000/svg" width="583.05" height="664" viewBox="0 0 583.05 664"><defs><style>.d{fill:#096bde;}</style></defs><g id="c"><path class="d" d="m560.53,246.32L326.36,14.27c-19.24-19.02-50.43-19.02-69.67,0L22.52,246.32c-14.28,14.21-22.52,33.89-22.52,54.08v243.79c0,42.02,34.07,76.09,76.09,76.09h193.57v21.86c0,12.08,9.79,21.86,21.86,21.86s21.86-9.79,21.86-21.86v-167.77c43.22,39.57,105.68,44.24,132.72,44.24,7.65,0,12.39-.36,13.26-.44,11.95-.95,20.92-11.52,19.9-23.54-.95-12.03-11.44-20.92-23.47-20.04-.73.07-72.08,5.17-113.11-32.72-3.72-3.43-7.07-7.14-10.13-11.08-4.74-6.27-8.6-13.19-11.59-20.77-2.7-6.85,4.81-13.05,10.93-9.04,26.16,17.27,59.91,27.55,100.07,29.81h1.24c11.52,0,21.21-9.04,21.86-20.62.66-12.1-8.6-22.37-20.62-23.1-43.71-2.4-94.04-16.31-113.16-64.07-2.71-6.77,4.81-13.02,10.95-9.08,15.3,9.83,33.21,17.47,53.6,22.5,1.82.44,3.57.66,5.32.66,9.84,0,18.73-6.63,21.21-16.54,2.92-11.73-4.15-23.61-15.89-26.53-55.9-13.99-83.08-47.96-83.08-103.71v-16.18c0-12.46-10.35-22.45-23.03-21.86-11.81.66-20.7,11.22-20.7,23.03v15.01c0,55.75-27.18,89.72-83.08,103.71-11.73,2.91-18.8,14.79-15.89,26.53,2.48,9.91,11.37,16.54,21.21,16.54,1.75,0,3.5-.22,5.32-.66,20.39-5.02,38.31-12.67,53.6-22.5,6.14-3.94,13.66,2.3,10.94,9.08-19.11,47.76-69.45,61.67-113.16,64.07-12.03.73-21.28,11.01-20.63,23.1.66,11.59,10.35,20.62,21.86,20.62h1.24c40.16-2.26,73.9-12.54,100.07-29.81,6.12-4.01,13.63,2.19,10.93,9.04-2.99,7.58-6.85,14.5-11.59,20.77-3.06,3.94-6.41,7.65-10.13,11.08-40.89,37.83-111.87,32.87-113.04,32.72-12.1-.95-22.59,8.02-23.61,19.97-.95,12.1,7.94,22.67,19.97,23.61.8.07,5.61.44,13.26.44,27.04,0,89.5-4.66,132.72-44.24v102.18H76.09c-17.87,0-32.36-14.49-32.36-32.36v-243.79c0-8.6,3.5-16.98,9.62-23.03L274.32,57.6c9.52-9.47,24.9-9.47,34.42,0l220.97,219.77c6.12,6.05,9.62,14.43,9.62,23.03v243.79c0,17.87-14.49,32.36-32.36,32.36h-127.98c-6.05,0-11.51,2.41-15.45,6.41-4.39,4.31-6.86,10.45-6.35,17.19.87,11.55,11.21,20.13,22.79,20.13h126.99c42.02,0,76.09-34.07,76.09-76.09v-243.79c0-20.19-8.24-39.87-22.52-54.08Z"/></g></svg>